# xmcd
#
# Track frame offsets:
#	150
#	11922
#	23274
#	33289
#	44996
#	56890
#	65161
#	73702
#	85937
#	97178
#	108466
#	119916
#	129825
#	140295
#	151673
#	160585
#	171714
#	184672
#	192924
#	205328
#	216738
#	225673
#	236236
#	247803
#
# Disc length: 3421 seconds
#
# Revision: 1
# Processed by: cddbd v1.5.2PL0 Copyright (c) Steve Scherf et al.
# Submitted via: audiograbber 1.83.01
#
DISCID=670d5b18
DTITLE=don gibson - oh lonesome me (1958) no one stands alone (1958)
DYEAR=2013
DGENRE=Country
TTITLE0=bad bad day
TTITLE1=take me as i am (or let me go)
TTITLE2=i can't leave
TTITLE3=i can't stop loving you
TTITLE4=blues in my heart
TTITLE5=sweet sweet girl
TTITLE6=blue blue day
TTITLE7=heartbreak avenue
TTITLE8=we could
TTITLE9=oh lonesome me
TTITLE10=too soon to know
TTITLE11=if you don't know it
TTITLE12=satisfied
TTITLE13=(prayer is the key to heaven) faith unlocks the door
TTITLE14=that lonesome valley
TTITLE15=evening prayer
TTITLE16=known only to him
TTITLE17=canaan's land
TTITLE18=where no one stands alone
TTITLE19=my god is real
TTITLE20=wait for the light to shine
TTITLE21=taller than trees
TTITLE22=lord i'm coming home
TTITLE23=climbing up the mountain
EXTD=
EXTT0=
EXTT1=
EXTT2=
EXTT3=
EXTT4=
EXTT5=
EXTT6=
EXTT7=
EXTT8=
EXTT9=
EXTT10=
EXTT11=
EXTT12=
EXTT13=
EXTT14=
EXTT15=
EXTT16=
EXTT17=
EXTT18=
EXTT19=
EXTT20=
EXTT21=
EXTT22=
EXTT23=
PLAYORDER=
